HIERARCHY
ROOT Hips
{
  OFFSET 0 0 0
  CHANNELS 6 Xposition Yposition Zposition Zrotation Xrotation Yrotation
  JOINT Spine
  {
    OFFSET 0 10 0
    CHANNELS 3 Zrotation Xrotation Yrotation
    JOINT Neck
    {
      OFFSET 0 30 0
      CHANNELS 3 Zrotation Xrotation Yrotation
      JOINT Head
      {
        OFFSET 0 8 0
        CHANNELS 3 Zrotation Xrotation Yrotation
        End Site
        {
          OFFSET 0 10 0
        }
      }
    }
    JOINT LeftArm
    {
      OFFSET 15 30 0
      CHANNELS 3 Zrotation Xrotation Yrotation
      JOINT LeftForeArm
      {
        OFFSET 25 0 0
        CHANNELS 3 Zrotation Xrotation Yrotation
        JOINT LeftHand
        {
          OFFSET 25 0 0
          CHANNELS 3 Zrotation Xrotation Yrotation
          End Site
          {
            OFFSET 10 0 0
          }
        }
      }
    }
    JOINT RightArm
    {
      OFFSET -15 30 0
      CHANNELS 3 Zrotation Xrotation Yrotation
      JOINT RightForeArm
      {
        OFFSET -25 0 0
        CHANNELS 3 Zrotation Xrotation Yrotation
        JOINT RightHand
        {
          OFFSET -25 0 0
          CHANNELS 3 Zrotation Xrotation Yrotation
          End Site
          {
            OFFSET -10 0 0
          }
        }
      }
    }
  }
  JOINT LeftUpLeg
  {
    OFFSET 10 -10 0
    CHANNELS 3 Zrotation Xrotation Yrotation
    JOINT LeftLeg
    {
      OFFSET 0 -35 0
      CHANNELS 3 Zrotation Xrotation Yrotation
      JOINT LeftToe
      {
        OFFSET 0 -40 0
        CHANNELS 3 Zrotation Xrotation Yrotation
        JOINT LeftToeEnd
        {
          OFFSET 0 0 0
          CHANNELS 3 Zrotation Xrotation Yrotation
          End Site
          {
            OFFSET 0 0 15
          }
        }
      }
    }
  }
  JOINT RightUpLeg
  {
    OFFSET -10 -10 0
    CHANNELS 3 Zrotation Xrotation Yrotation
    JOINT RightLeg
    {
      OFFSET 0 -35 0
      CHANNELS 3 Zrotation Xrotation Yrotation
      JOINT RightToe
      {
        OFFSET 0 -40 0
        CHANNELS 3 Zrotation Xrotation Yrotation
        JOINT RightToeEnd
        {
          OFFSET 0 0 0
          CHANNELS 3 Zrotation Xrotation Yrotation
          End Site
          {
            OFFSET 0 0 15
          }
        }
      }
    }
  }
}
MOTION
Frames:	14
Frame Time:	0.0333333
52.0205 84.3297 -162.872 0.593775 7.41697 -14.4226 2.04354 -10.9829 5.94773 -5.7613 -13.5868 -1.81626 13.844 15.4996 -5.83462 -93.0914 34.733 15.1475 6.64196 -1.65165 -15.4466 0.896066 6.85945 0.698595 97.6928 52.4191 -19.5113 -18.0652 -6.58389 28.6751 3.16387 -21.0753 2.38765 10.5818 -38.8061 16.2838 0.272054 44.0422 1.58352 -1.28812 -9.91525 5.85023 2.48481e-017 5.96354e-016 7.95139e-016 -6.27303 5.55125 0.0617898 -5.41281 41.7519 -8.20494 14.0507 -1.02117 -2.25326 3.18055e-015 -3.18055e-015 4.77083e-015 
52.7683 84.9971 -159.836 1.21381 6.8771 -14.2016 1.53508 -10.2696 5.40222 -5.8252 -13.6926 -2.0193 13.6158 15.1846 -5.59398 -92.0959 37.6519 13.8385 7.23812 -1.81955 -16.2733 0.969382 4.22143 0.577743 96.6552 50.7961 -18.7201 -17.4098 -6.28466 27.7583 3.27572 -20.2937 2.34793 7.39483 -35.5024 14.3989 0.29174 42.5399 1.4399 -0.631283 -11.7371 6.27786 -0 0 7.95139e-016 -6.07345 1.11788 -1.44669 -7.48249 47.9057 -6.63863 12.4199 2.70111 -8.21273 -3.18055e-015 -3.18055e-015 1.59028e-015 
53.3184 85.7108 -156.809 1.57497 6.52978 -13.4227 0.950488 -9.95874 4.33059 -5.34414 -13.6873 -2.07472 13.1063 15.4534 -5.07545 -89.7886 40.4209 11.6097 7.61891 -1.91149 -16.7557 0.840218 3.00907 0.667106 96.2725 49.1069 -18.1534 -17.1929 -6.21483 27.4715 3.31816 -20.2929 2.38491 4.59713 -32.0158 12.6215 0.416549 40.3852 1.2574 -0.0443718 -13.063 7.00872 2.75869e-033 1.98785e-016 -7.95139e-016 -5.76212 -3.08957 -1.95762 -7.26662 52.0241 -3.27817 9.75068 0.778745 -9.39208 -3.18055e-015 0 -3.18055e-015 
53.8422 86.2742 -153.949 1.46225 6.70485 -11.7899 0.912773 -10.2278 2.82482 -5.33433 -13.3825 -2.422 12.9791 15.7443 -4.94745 -87.1992 43.672 8.85034 7.97521 -2.01549 -17.1864 0.800554 1.66839 0.749799 96.1328 47.9848 -18.3894 -17.3712 -6.36538 27.8626 3.32058 -20.6138 2.40466 2.49142 -29.399 10.4017 0.538695 38.4471 1.11946 0.446047 -14.0699 7.45963 -2.48481e-017 0 -0 -4.6944 -7.99166 -2.64172 -7.01012 55.3229 -1.1766 7.50097 -2.85644 -8.39514 3.18055e-015 -3.18055e-015 -1.59028e-015 
54.2692 86.5462 -151.261 1.51755 6.59483 -10.3773 0.596706 -10.033 1.61034 -5.17157 -13.1438 -2.85738 12.9515 16.0377 -5.08881 -83.5569 45.7096 4.93055 8.6064 -2.20934 -17.985 0.83176 1.56268 0.633744 96.1968 47.4212 -18.7877 -17.7499 -6.48279 28.3319 3.19254 -21.5686 2.15486 0.711864 -26.7167 8.78201 0.656987 36.8493 0.995908 0.896937 -15.3816 7.67957 2.48481e-017 0 -0 -3.54549 -12.6958 -2.39027 -6.60047 57.2707 -0.214562 5.13485 -8.37778 -8.73754 3.18055e-015 6.36111e-015 1.59028e-015 
54.6429 86.6363 -148.428 1.57669 6.01606 -9.56294 0.397833 -9.69733 1.0233 -5.20609 -12.8938 -3.06689 12.8565 16.6361 -5.23513 -79.9227 46.7706 0.922785 9.09436 -2.45172 -18.6833 1.07441 1.41938 0.555761 96.3003 47.2232 -19.5035 -17.9229 -6.63535 28.7342 3.21165 -22.144 2.28183 -0.881838 -23.2852 6.96838 0.761385 35.379 0.696409 0.459616 -17.6199 8.10623 -1.86361e-016 3.97569e-016 1.59028e-015 -2.62648 -16.5829 -1.71737 -5.9305 57.5386 0.0632183 2.55284 -13.3945 -9.5082 -4.77083e-015 0 3.18055e-015 
55.0234 86.5424 -145.624 1.98108 5.64054 -8.11907 -0.335561 -9.65415 -0.142876 -5.01782 -12.4463 -3.3971 12.656 16.9789 -5.26663 -76.4339 48.483 -2.69815 10.1871 -2.87973 -20.0739 0.175642 -1.49067 1.40284 96.7507 47.3127 -20.4543 -17.9584 -6.66662 28.8618 3.24093 -22.6999 2.27627 -2.78803 -20.3762 5.3135 0.847621 34.3281 0.721594 1.42857 -19.0872 8.53446 4.96962e-017 -1.98785e-016 -0 -2.19193 -20.452 -1.0681 -5.15736 56.5461 -0.585512 1.16377 -17.1737 -10.1137 0 0 -3.18055e-015 
55.3036 86.3521 -142.788 2.31179 5.13168 -6.89312 -0.765618 -9.41682 -0.667515 -5.33775 -12.4644 -3.66986 12.5514 17.7568 -5.62042 -73.2132 50.8082 -5.99049 11.4435 -3.38012 -21.8176 0.433937 -3.59879 1.2221 96.7127 46.3809 -20.887 -17.7764 -6.65813 28.8037 3.31402 -22.5179 2.38811 -4.16014 -17.2387 4.42443 0.966962 33.4492 0.695291 2.1411 -20.7034 8.64365 2.48481e-017 3.97569e-016 2.38542e-015 -1.89283 -24.0988 -0.0988076 -4.26999 54.6096 -1.31381 0.223505 -18.9729 -10.8392 -7.95139e-016 -9.54166e-015 -0 
55.6065 86.1899 -139.791 2.27019 5.1551 -5.25722 -0.625559 -9.95262 -0.847387 -5.97018 -11.6858 -4.17296 12.6163 17.7854 -6.78002 -70.3324 53.5423 -9.23641 12.5964 -3.86954 -23.3544 0.407043 -6.09536 1.24459 96.8719 44.9996 -21.737 -17.498 -6.56821 28.6242 3.31127 -22.1548 2.50589 -4.71343 -14.5534 3.98141 1.04518 32.3591 0.576973 2.318 -22.2756 7.61211 4.96962e-017 3.97569e-016 2.38542e-015 -1.67213 -27.3964 0.714752 -3.20945 50.8835 -1.89895 -0.332821 -18.7461 -10.8596 3.97569e-016 0 -6.36111e-015 
55.8459 86.0194 -136.835 2.24293 4.82537 -3.44609 -1.07489 -10.4259 -2.2087 -5.75969 -10.2669 -4.41065 12.3836 17.7846 -6.72104 -68.7544 54.9289 -10.4688 13.7727 -4.46216 -25.2536 0.31945 -7.52921 1.21416 97.6024 44.4628 -22.9114 -17.1707 -6.21749 28.0167 3.14681 -22.4135 2.22257 -5.21379 -11.0489 3.30953 1.06858 30.469 0.450919 2.44812 -23.6145 6.77847 -2.48481e-017 0 -0 -1.84815 -30.1124 1.16175 -2.27643 46.8201 -2.57806 -0.169463 -17.524 -10.9162 9.93923e-016 -1.59028e-015 -0 
56.1266 85.934 -133.897 2.63062 4.83139 -1.15909 -1.66413 -10.8253 -3.29425 -5.99806 -9.67436 -4.72321 12.1044 18.0449 -7.06328 -66.3037 57.9361 -12.9614 14.8676 -4.99592 -26.8084 0.174004 -9.12435 1.22515 97.782 43.017 -23.6158 -16.7771 -6.13996 27.7478 3.3066 -22.2758 2.44059 -6.16388 -7.51153 1.69806 0.943981 27.527 0.380731 2.72925 -24.0258 6.29219 -5.51738e-033 1.98785e-016 1.59028e-015 -3.12211 -32.897 1.6625 -1.47095 42.8212 -3.20106 -0.155779 -17.5822 -9.21507 -7.95139e-016 3.97569e-016 1.59028e-015 
56.2916 85.7672 -130.817 2.65566 5.00547 0.776345 -1.86192 -11.4298 -4.25362 -6.46165 -9.07279 -4.99848 12.364 18.5428 -7.32188 -65.4893 59.8619 -13.8103 15.9654 -5.59446 -28.5346 0.189884 -11.0186 1.13862 97.9342 42.0352 -24.5004 -16.3571 -5.90005 27.2338 3.2854 -21.9976 2.43294 -6.15806 -4.92261 1.3098 0.966119 26.2182 0.212114 2.45754 -24.679 5.09112 -4.96962e-017 1.98785e-016 1.59028e-015 -3.67155 -35.8101 3.9188 -0.766161 39.4847 -3.30717 2.90848 -16.3585 -7.436 -1.98785e-016 -3.18055e-015 -0 
56.453 85.7957 -127.736 2.7341 4.9208 2.73044 -2.14305 -11.6415 -4.9627 -6.51535 -8.80292 -5.18221 12.3296 19.2864 -7.52992 -65.5033 61.949 -13.8338 17.0188 -6.20861 -30.257 0.23311 -12.4354 1.01499 98.1809 40.5934 -25.4376 -16.0612 -5.76882 26.947 3.2669 -21.0438 2.40853 -5.94348 -2.58098 0.803428 0.838225 26.0445 -0.132113 1.24659 -25.2561 3.50354 4.96962e-017 0 7.95139e-016 -4.77735 -38.0611 5.07628 -0.145816 36.061 -3.71683 3.55234 -15.5171 -5.90429 1.98785e-016 -1.59028e-015 -0 
56.5382 85.513 -124.635 2.75074 5.40775 4.63188 -2.95149 -11.9752 -6.16098 -5.95426 -9.05173 -5.62607 12.1241 19.8724 -7.28947 -66.3613 63.4443 -12.5341 17.8213 -6.71957 -31.7777 0.23964 -12.9196 0.958802 99.2735 40.1622 -26.3624 -16.012 -5.7336 26.7601 3.29331 -20.4997 2.44276 -5.35747 -0.66731 0.469662 0.423126 25.6656 -0.322844 0.75234 -27.2933 2.17621 4.96962e-017 7.95139e-016 -0 -5.70124 -40.3888 7.29006 0.39156 33.0215 -4.17908 3.98401 -15.5989 -6.08367 -0 -3.18055e-015 -0 
